<?xml version="1.0" encoding="UTF-8" standalone="no"?>
<!-- Created with Inkscape (http://www.inkscape.org/) -->

<svg
   xmlns:dc="http://purl.org/dc/elements/1.1/"
   xmlns:cc="http://creativecommons.org/ns#"
   xmlns:rdf="http://www.w3.org/1999/02/22-rdf-syntax-ns#"
   xmlns:svg="http://www.w3.org/2000/svg"
   xmlns="http://www.w3.org/2000/svg"
   xmlns:sodipodi="http://sodipodi.sourceforge.net/DTD/sodipodi-0.dtd"
   xmlns:inkscape="http://www.inkscape.org/namespaces/inkscape"
   id="svg2"
   version="1.1"
   inkscape:version="0.48.3.1 r9886"
   width="141.73228"
   height="141.73228"
   xml:space="preserve"
   sodipodi:docname="earth_collar.svg"
   inkscape:export-filename="/home/philipp/_daten/shack/embroidery/hgg/earth_300dpi.png"
   inkscape:export-xdpi="299.97403"
   inkscape:export-ydpi="299.97403"><metadata
     id="metadata8"><rdf:RDF><cc:Work
         rdf:about=""><dc:format>image/svg+xml</dc:format><dc:type
           rdf:resource="http://purl.org/dc/dcmitype/StillImage" /><dc:title /></cc:Work></rdf:RDF></metadata><defs
     id="defs6"><clipPath
       clipPathUnits="userSpaceOnUse"
       id="clipPath18"><path
         d="m 0,0 6120,0 0,5536.64 -6120,0 L 0,0 z"
         id="path20"
         inkscape:connector-curvature="0" /></clipPath></defs><sodipodi:namedview
     pagecolor="#ffffff"
     bordercolor="#666666"
     borderopacity="1"
     objecttolerance="10"
     gridtolerance="10"
     guidetolerance="10"
     inkscape:pageopacity="0"
     inkscape:pageshadow="2"
     inkscape:window-width="839"
     inkscape:window-height="886"
     id="namedview4"
     showgrid="false"
     units="mm"
     inkscape:zoom="2.776696"
     inkscape:cx="85.59987"
     inkscape:cy="59.885263"
     inkscape:window-x="0"
     inkscape:window-y="27"
     inkscape:window-maximized="0"
     inkscape:current-layer="g16" /><g
     id="g10"
     inkscape:groupmode="layer"
     inkscape:label="hgg_alles_cmyk_100k"
     transform="matrix(1.25,0,0,-1.25,0,141.73217)"><g
       id="g12"
       transform="scale(0.1,0.1)"><g
         id="g14"><g
           id="g16"
           clip-path="url(#clipPath18)"><path
             d="m 1053.0244,321.47786 c -5.6171,-11.00816 -24.8813,-42.97524 -25.0669,-43.29003 -30.36101,-48.27748 -67.91288,-91.37382 -111.62259,-128.10252 0.34705,7.14231 0.40354,14.43803 0.14526,21.74183 -0.0161,0.28245 -0.18561,0.54877 -0.45994,0.69403 -0.10495,0.0487 -0.23406,0.0725 -0.35519,0.0725 -0.16136,0 -0.33085,-0.0402 -0.46004,-0.15331 l -9.74907,-6.94873 c -0.21793,-0.16141 -0.33895,-0.41159 -0.33895,-0.66176 0.0802,-8.36097 -0.29856,-16.69777 -1.09761,-24.80052 C 851.39185,98.353518 792.41288,67.112754 728.73125,47.170659 c -6.8882,4.196571 -13.93366,9.539226 -20.96386,15.874581 -0.15171,0.14528 -0.34704,0.20981 -0.53586,0.20981 -0.0952,0 -0.18319,0 -0.26796,-0.03242 l -10.53599,-3.631689 c -0.2615,-0.0888 -0.46647,-0.31479 -0.5294,-0.581106 -0.0574,-0.28245 0.0316,-0.564888 0.23647,-0.758565 6.09075,-5.843012 12.21544,-11.016241 18.21501,-15.366191 C 666.35864,29.30252 616.517,22.410301 566.18716,22.410301 c -29.20782,0 -58.66826,2.38077 -87.56135,7.077791 -0.15167,0.03243 -20.61764,4.81003 -27.17487,7.029391 -3.9876,1.372024 -15.6583,6.633929 -15.77857,6.682326 -0.0726,0.04867 -0.14768,0.06483 -0.23001,0.08023 -12.5536,1.573724 -25.42519,3.591385 -38.25238,5.98829 C 322.50668,73.65734 252.363,115.15563 194.45094,169.23584 c -13.10239,17.62593 -24.97729,35.89741 -35.24536,54.24162 42.57495,-24.82476 96.54621,-41.40958 156.30883,-48.01117 4.91169,-0.54075 9.94604,-1.02496 14.95861,-1.45269 0.0155,0 0.0412,0 0.063,0 0.2518,0 0.50441,0.12906 0.65211,0.33085 0.16705,0.24215 0.19932,0.54073 0.0889,0.79091 l -3.3105,7.87681 9.11075,0.46 c 0.2744,0.0162 0.52055,0.17752 0.66257,0.41158 0.13559,0.23405 0.14125,0.53264 0.0155,0.77479 -36.12745,69.01859 -57.31242,149.77172 -62.97142,239.99951 19.99295,-2.41304 40.63561,-3.62365 61.36378,-3.62365 55.5789,0 112.75009,8.32067 169.94307,24.72799 29.59608,-89.95349 59.49791,-167.21201 88.85748,-229.59676 0.13233,-0.28246 0.42206,-0.46 0.73116,-0.46 0.0792,0 0.15737,0.0163 0.23648,0.0324 l 9.48927,2.99416 c 0.22031,0.0648 0.4035,0.24207 0.49793,0.44385 0.0848,0.21792 0.0848,0.46 -0.009,0.67791 -29.19253,62.08609 -59.04678,139.498 -88.74369,230.04061 -0.10974,0.34707 -0.42527,0.54879 -0.76585,0.54879 -0.0693,0 -0.14854,0 -0.22681,-0.0325 l -9.01633,-2.67934 -2.83758,8.66762 c -0.10975,0.34705 -0.42527,0.55686 -0.76585,0.55686 -0.0693,0 -0.14767,0 -0.22681,-0.0325 -56.18417,-16.157 -112.4192,-24.35666 -167.11518,-24.35666 -21.1535,0 -42.02374,1.26708 -62.05786,3.76894 -2.09671,43.9195 -0.57704,90.14717 4.52996,137.43203 4.34433,40.19896 11.26395,81.84263 20.56435,123.76874 6.642,-0.40363 13.25654,-0.62953 19.64029,-0.62953 35.8127,0 73.03774,5.83488 110.65335,17.32728 0.41001,0.12102 0.64649,0.54874 0.54559,0.96035 l -2.24763,8.88563 8.9784,2.88912 c 0.40031,0.12114 0.63676,0.54887 0.53589,0.96047 -24.53668,97.35398 -41.4338,177.71975 -47.08312,212.81012 30.66455,-26.59213 90.21573,-85.15147 156.30884,-158.11666 0.15734,-0.1694 0.3777,-0.26626 0.59883,-0.26626 0.17346,0 0.33086,0.0487 0.4729,0.15336 l 7.48698,5.41523 6.13198,-6.81146 c 0.1573,-0.17756 0.37769,-0.27437 0.59883,-0.27437 0.17347,0 0.34058,0.0563 0.48257,0.16141 37.47362,27.88346 67.81696,60.7787 87.79783,95.15886 81.76674,-37.54385 159.2965,-86.2168 224.24359,-140.77312 0.15328,-0.12912 0.33092,-0.18566 0.52459,-0.18566 0.0487,0 0.10489,0.008 0.15328,0.008 0.2422,0.0487 0.45196,0.20977 0.57303,0.42769 l 3.99487,7.66692 6.8438,-5.81074 c 0.15329,-0.12106 0.33083,-0.18562 0.52452,-0.18562 0.0564,0 0.10495,0 0.15335,0.0161 0.25023,0.0487 0.46004,0.20169 0.57304,0.42777 27.50408,53.4668 40.40877,108.16033 37.35007,158.28601 63.4339,-40.98184 115.87578,-97.28146 155.86498,-167.34916 4.9472,-52.86966 -9.6522,-113.148 -42.2246,-174.37057 -0.1293,-0.21783 -0.1293,-0.48417 -0.016,-0.72635 l 5.3505,-10.96775 c 0.1292,-0.26634 0.3957,-0.44385 0.7022,-0.45998 0.016,0 0.016,0 0.024,0 0.2905,0 0.5566,0.16141 0.694,0.42769 30.8211,55.89604 47.3573,112.20374 47.9224,163.03151 0.1131,-0.2017 0.2098,-0.38736 0.3147,-0.59717 11.6296,-44.62162 17.5696,-90.9542 17.5696,-137.52889 0,-71.24607 -13.6472,-140.61976 -40.5462,-206.19231 -0.121,-0.29861 -12.8078,-30.23197 -17.6985,-39.82779 z M 126.11021,246.21264 c 4.33465,-3.50261 8.87429,-6.92447 13.56567,-10.21721 3.53646,-7.09394 7.3199,-14.20406 11.29218,-21.23337 -8.68542,10.21721 -17.02384,20.75725 -24.85785,31.45058 z m -38.508079,60.55273 c -40.462653,73.99008 -62.6817,154.37999 -66.029653,238.91817 0.362523,11.2018 1.32404,22.60528 2.859367,33.90399 17.14345,-34.86443 42.142939,-64.86233 74.355809,-89.15448 -2.585789,-18.7073 -4.066719,-37.13217 -4.407294,-54.79035 -1.18232,-61.25489 10.51341,-120.79071 34.77243,-177.02574 -16.90762,14.35736 -30.869548,30.54673 -41.550659,48.14841 z m 26.260349,564.58566 c 11.69008,11.70217 24.91111,22.3068 39.25879,31.4668 C 139.71945,871.65769 134.87393,840.72364 139.08268,813.1549 83.541724,759.65579 45.42136,700.67678 25.645562,637.68684 36.436667,720.98219 66.836505,801.57379 113.86248,871.35103 z m 70.20661,84.48979 c -3.97146,-5.34264 -7.64435,-10.60464 -10.97019,-15.74553 -3.82458,-5.89142 -7.39253,-11.96848 -10.92337,-18.52177 -6.95191,-3.80114 -13.79243,-7.94132 -20.38117,-12.38818 13.09838,16.23791 27.28464,31.88643 42.27473,46.65548 z m 66.07696,52.14318 0.55201,0 c 30.76867,0 85.28547,-29.71542 112.02535,-46.76829 -6.20457,0.1937 -12.37364,0.26636 -18.395,0.26636 -63.23372,0.0238 -118.18233,-10.28989 -163.38017,-30.61131 0.59883,0.97652 1.19847,1.96922 1.83846,2.9538 17.18767,26.55987 39.85359,51.5057 67.35935,74.15944 z m 58.55849,39.8359 c 13.90301,7.4813 28.29426,14.4381 42.73232,20.6524 7.01486,2.865 14.18063,5.5766 21.29555,8.0138 -2.22261,-20.1519 -2.06522,-54.7822 2.2323,-108.65267 -25.45103,17.01256 -75.03034,44.38757 -111.64686,50.47277 14.271,10.7338 29.52985,20.6685 45.38669,29.5137 z M 205.39611,736.2515 C 266.68163,835.08239 338.39176,906.55443 363.3852,930.07175 341.59495,883.23882 311.51066,802.12253 290.2151,709.853 c -32.56594,3.24431 -61.86819,12.3558 -84.81899,26.3985 z m 56.91294,-298.3088 c -34.54563,5.22165 -66.77343,14.20407 -95.81503,26.72137 -20.0559,8.65155 -38.79151,19.21581 -55.69833,31.36986 9.16725,59.04355 30.16258,120.7665 62.40731,183.50634 7.82433,15.21283 16.63567,30.97448 26.18787,46.85719 24.09115,-14.72058 54.5701,-24.34864 88.27074,-27.88353 -9.25279,-41.89384 -16.14093,-83.44858 -20.46671,-123.51044 -5.11587,-47.34135 -6.75579,-93.43986 -4.88585,-137.06079 z m -153.33889,45.21079 c 16.1724,-11.113 33.97424,-20.8864 52.95277,-29.08592 30.50071,-13.14684 64.48464,-22.50855 101.00674,-27.83504 2.98607,-51.58642 10.98712,-100.43701 23.76995,-145.23621 9.48925,-33.20996 21.91052,-65.08024 36.91673,-94.76341 -2.28554,0.21791 -4.56546,0.46007 -6.82517,0.71025 -66.58138,7.3441 -124.76137,27.04413 -168.28218,56.94522 -36.94096,74.71632 -50.235449,155.21928 -39.53884,239.26511 z m 80.75794,249.65187 c -9.75074,-16.22167 -18.75738,-32.36251 -26.78023,-47.987 -31.49421,-61.25482 -52.41122,-122.22729 -62.16843,-181.23843 -33.044534,26.21283 -57.571172,58.65608 -72.901906,96.45015 14.432255,71.9482 52.782794,139.11869 113.979776,199.71173 1.56002,-5.75428 3.53082,-11.29865 5.84788,-16.488 8.82665,-19.73225 22.95643,-36.71258 42.02291,-50.44845 z M 356.03945,939.2156 C 330.74984,915.64987 258.6047,844.27466 195.74948,742.69974 c -17.01739,12.43658 -29.63396,27.66553 -37.49943,45.25916 -2.89972,6.48869 -5.1538,13.59875 -6.73077,21.12849 13.80857,13.00961 28.71392,25.68017 44.29315,37.68104 67.59017,51.99802 135.51122,82.31072 160.22702,92.44717 z m -14.81656,21.40289 c 1.04996,0.0161 2.04909,0.0648 3.10552,0.0648 6.98257,0 14.07569,-0.12901 21.2794,-0.36305 -8.29159,0.2824 -16.3871,0.34696 -24.38492,0.29852 z m 3.0482,-10.65305 c 2.45909,0 4.92784,-0.0161 7.39337,-0.0487 -24.56489,-10.01537 -93.46328,-40.5944 -162.89755,-94.01286 -13.60923,-10.4674 -26.82221,-21.56428 -39.27091,-32.95978 -2.30492,27.83506 5.0029,58.92251 21.1753,90.05027 46.42053,24.53421 104.82166,36.97084 173.59979,36.97084 z M 425.8837,725.17072 C 389.48186,714.07379 353.48596,708.4487 318.87173,708.4487 c -5.61141,0 -11.20745,0.16942 -17.05532,0.48424 24.88286,107.33714 59.76584,192.28692 77.38851,227.52259 5.94876,-36.59956 22.46738,-115.02036 46.67878,-211.28481 z M 384.92285,1080.481 c 34.12031,10.4917 68.13573,15.802 101.10521,15.802 6.96725,0 13.91832,-0.2502 20.70236,-0.7343 -42.95347,-26.7537 -83.24201,-68.2843 -119.7956,-123.55085 -4.31931,55.23435 -4.99723,91.70475 -2.01197,108.48315 z m 152.08795,31.3054 c -4.4928,-2.0418 -8.89039,-4.1644 -13.11448,-6.3918 -9.94042,1.3155 -20.14467,2.0903 -30.4539,2.3564 14.31296,1.9048 28.90922,3.2607 43.56838,4.0354 z m 35.26069,0.7102 c 80.3738,-0.8716 157.52587,-18.8687 229.45633,-53.5233 -35.76508,9.0389 -72.29685,13.6068 -108.71486,13.6068 -22.90236,0 -46.17438,-1.8159 -69.19779,-5.3748 -21.64181,16.3344 -49.35252,28.3595 -80.31003,34.8643 9.45052,4.1642 19.11006,7.667 28.76635,10.427 z m 118.68675,-40.764 c 0.68355,0.01 1.36146,0.041 2.05472,0.041 5.83251,0 11.74332,-0.1535 17.67029,-0.3956 -6.63631,0.2744 -13.21863,0.3875 -19.72501,0.355 z M 894.47203,971.69929 c 7.66692,-16.488 13.14674,-34.0655 16.3104,-52.25635 -55.91223,32.16084 -120.37185,53.66051 -191.63485,63.90198 -14.34366,2.0741 -29.29583,3.68821 -44.46587,4.87458 -1.71822,9.32945 -4.50817,18.3523 -8.27547,26.7938 -6.98336,15.6085 -17.28209,29.7883 -30.65248,42.2168 19.06653,2.518 38.32831,3.7768 57.2915,3.7931 52.14247,0 104.17522,-9.5958 154.64225,-28.5292 23.9935,-24.7763 39.30314,-44.66997 46.78452,-60.79471 z m -218.16733,3.80119 c 89.80009,-7.17471 169.40555,-31.35381 236.64062,-71.86754 4.93914,-49.53653 -6.74689,-104.07675 -33.83951,-157.79379 -40.54604,33.66192 -86.00934,65.24164 -135.13187,93.84337 -28.57752,16.64939 -58.36883,32.14472 -88.54838,46.06624 15.91415,30.53063 23.11784,61.53734 20.87914,89.75172 z M 421.87993,957.02707 c 69.06629,13.77638 134.69209,20.77341 195.16734,20.77341 16.1466,0 32.20925,-0.50838 47.74489,-1.48494 2.59144,-26.72944 -4.19586,-56.39636 -19.65964,-85.88589 -78.34649,35.09848 -155.38798,58.06698 -223.25259,66.59742 z m 217.9188,-76.18513 C 620.58375,848.19687 591.4074,816.8431 555.34289,790.08143 490.90506,861.23072 431.31592,920.01594 399.77494,947.73805 471.5327,942.00801 554.44381,918.89418 639.79873,880.84194 z m -234.81591,97.17647 c 37.13706,53.15219 77.85176,91.97919 121.0473,115.44809 31.0778,-4.5438 59.27119,-14.5672 81.67558,-29.0537 -87.22404,-16.6735 -157.76798,-55.5894 -202.72288,-86.39439 z m 88.8696,2.66328 c -10.05663,-1.40428 -19.65568,-2.89733 -28.74139,-4.43072 9.08571,1.53339 18.68476,3.02644 28.74139,4.43072 z m 125.74833,8.8775 c -4.18695,0.0161 -8.33276,-0.0161 -12.4624,-0.0649 3.2629,0.0325 6.51046,0.0968 9.80483,0.0968 0.88204,0 1.78113,-0.0325 2.65757,-0.0325 z m -2.65757,0.83127 c -83.87319,0 -155.48324,-12.85629 -209.11714,-24.42932 46.89752,32.69346 120.96257,73.75606 212.89973,89.04156 15.76245,-12.7595 27.59455,-27.8029 35.14124,-44.7025 2.94169,-6.5854 5.25874,-13.74394 6.8664,-21.25754 -14.95863,0.89584 -30.34983,1.3478 -45.79023,1.3478 z M 1073.5154,766.86272 c 0.6698,-2.18704 1.3154,-4.44682 1.9127,-6.69854 -40.5702,63.40972 -91.64831,114.42313 -151.87815,151.6845 -2.93775,22.66186 -9.19231,44.43599 -18.59439,64.70091 -4.81805,10.37862 -12.37205,21.86286 -23.02499,34.99361 86.57187,-61.70681 152.74963,-146.19664 191.58483,-244.68048 z M 959.77817,961.08659 c -105.1339,105.14201 -244.91762,163.05571 -393.59101,163.05571 -148.6798,0 -288.46594,-57.9137 -393.59267,-163.05571 C 67.457535,855.96873 9.5613604,716.17212 9.5613604,567.49804 9.5613604,418.8077 67.457535,279.04328 172.59449,173.90935 277.72122,68.767298 417.50736,10.869752 566.18716,10.869752 c 148.67339,0 288.45711,57.897546 393.59101,163.039598 105.13413,105.13393 163.03163,244.91444 163.03163,393.58869 0,148.67408 -57.8975,288.47069 -163.03163,393.58855"
             style="fill:#231f20;fill-opacity:1;fill-rule:nonzero;stroke:none"
             id="path22"
             inkscape:connector-curvature="0" /><path
             d="m 553.20499,770.40563 c -21.86933,-15.15627 -45.68609,-28.54517 -70.85304,-39.79546 -12.55923,-5.60899 -25.50102,-10.7014 -38.52033,-15.14817 22.4932,-88.14575 47.37284,-174.90327 72.10399,-251.37901 27.86892,8.66763 55.35858,19.27232 81.77074,31.52323 43.18028,20.04705 83.84738,44.1858 120.93679,71.75455 -14.19592,19.50632 -29.20783,39.41612 -44.67082,59.22918 -36.8215,47.17995 -77.44177,95.55434 -120.76733,143.81568"
             style="fill:#00ff00;fill-opacity:1;fill-rule:nonzero;stroke:none"
             id="path24"
             inkscape:connector-curvature="0" /><path
             d="M 883.6011,723.24993 C 851.33532,665.63481 803.00534,610.62652 743.42191,563.73712 795.39166,490.90917 836.55838,422.65724 865.8541,360.7245 c 56.88878,44.35533 104.18982,93.72235 140.6118,146.79377 8.0867,11.79907 15.6889,23.88046 22.5892,36.01043 -2.6067,5.28613 -5.3749,10.58841 -8.2883,15.93107 -30.9422,56.3803 -77.08109,111.47743 -137.1657,163.79016"
             style="fill:#00ff00;fill-opacity:1;fill-rule:nonzero;stroke:none"
             id="path26"
             inkscape:connector-curvature="0" /><path
             d="m 1021.2994,497.34141 c -38.19753,-55.662 -87.88742,-107.24842 -147.72176,-153.40348 25.17171,-56.38031 40.21503,-107.70845 44.77492,-152.79008 51.76399,39.23862 94.19844,83.77952 129.55534,135.9712 22.5083,62.23138 19.2398,128.28816 -9.6927,196.46749 -5.3751,-8.8936 -11.0485,-17.70661 -16.9158,-26.24513"
             style="fill:#00ff00;fill-opacity:1;fill-rule:nonzero;stroke:none"
             id="path28"
             inkscape:connector-curvature="0" /><path
             d="m 712.23766,246.38216 c -31.59835,-14.67215 -64.25791,-27.55258 -97.13942,-38.31865 29.23041,-60.1653 57.87172,-104.9645 85.20719,-133.275654 32.82988,11.355102 66.58701,25.914254 100.36674,43.330294 37.72622,19.47408 70.69413,39.28711 100.69197,60.56085 -2.79235,44.70231 -17.06897,96.54693 -42.48295,154.22657 -45.12589,-33.18572 -94.4317,-62.27976 -146.64353,-86.52341"
             style="fill:#00ff00;fill-opacity:1;fill-rule:nonzero;stroke:none"
             id="path30"
             inkscape:connector-curvature="0" /><path
             d="m 380.66084,168.71998 c -10.10342,0 -20.47559,0.28254 -30.93572,0.82318 27.279,-47.4624 62.40408,-89.501419 104.53194,-125.067998 77.58303,-7.344095 151.64565,0.540744 227.36609,24.187229 C 654.44177,98.910463 626.29038,143.92758 597.82258,202.65632 523.80189,180.13169 450.75771,168.71998 380.66084,168.71998"
             style="fill:#00ff00;fill-opacity:1;fill-rule:nonzero;stroke:none"
             id="path32"
             inkscape:connector-curvature="0" /><path
             inkscape:connector-curvature="0"
             id="path3065"
             style="fill:#ffffff;fill-opacity:1;fill-rule:nonzero;stroke:none"
             d="m 676.3047,975.50048 c 89.80009,-7.17471 169.40555,-31.35381 236.64062,-71.86754 4.93914,-49.53653 -6.74689,-104.07675 -33.83951,-157.79379 -40.54604,33.66192 -86.00934,65.24164 -135.13187,93.84337 -28.57752,16.64939 -58.36883,32.14472 -88.54838,46.06624 15.91415,30.53063 23.11784,61.53734 20.87914,89.75172 z M 421.87993,957.02707 c 69.06629,13.77638 134.69209,20.77341 195.16734,20.77341 16.1466,0 32.20925,-0.50838 47.74489,-1.48494 2.59144,-26.72944 -4.19586,-56.39636 -19.65964,-85.88589 -78.34649,35.09848 -155.38798,58.06698 -223.25259,66.59742 z"
             sodipodi:nodetypes="cccccccsccc" /></g></g></g></g></svg>