<?xml version="1.0" encoding="UTF-8" standalone="no"?>
<!-- Created with Inkscape (http://www.inkscape.org/) -->
<svg
   xmlns:dc="http://purl.org/dc/elements/1.1/"
   xmlns:cc="http://creativecommons.org/ns#"
   xmlns:rdf="http://www.w3.org/1999/02/22-rdf-syntax-ns#"
   xmlns:svg="http://www.w3.org/2000/svg"
   xmlns="http://www.w3.org/2000/svg"
   xmlns:sodipodi="http://sodipodi.sourceforge.net/DTD/sodipodi-0.dtd"
   xmlns:inkscape="http://www.inkscape.org/namespaces/inkscape"
   width="1169.9838"
   height="312.05112"
   id="svg2"
   sodipodi:version="0.32"
   inkscape:version="0.46"
   version="1.0"
   sodipodi:docname="ApetureLabs.svg"
   inkscape:output_extension="org.inkscape.output.svg.inkscape">
  <defs
     id="defs4"><inkscape:perspective
   sodipodi:type="inkscape:persp3d"
   inkscape:vp_x="0 : 526.18109 : 1"
   inkscape:vp_y="0 : 1000 : 0"
   inkscape:vp_z="744.09448 : 526.18109 : 1"
   inkscape:persp3d-origin="372.04724 : 350.78739 : 1"
   id="perspective10" />
<inkscape:perspective
   id="perspective2484"
   inkscape:persp3d-origin="372.04724 : 350.78739 : 1"
   inkscape:vp_z="744.09448 : 526.18109 : 1"
   inkscape:vp_y="0 : 1000 : 0"
   inkscape:vp_x="0 : 526.18109 : 1"
   sodipodi:type="inkscape:persp3d" />
<inkscape:perspective
   id="perspective26"
   inkscape:persp3d-origin="257.38351 : 171.58901 : 1"
   inkscape:vp_z="514.76703 : 257.38351 : 1"
   inkscape:vp_y="0 : 1000 : 0"
   inkscape:vp_x="0 : 257.38351 : 1"
   sodipodi:type="inkscape:persp3d" />

	
	
	
	
	
	
	
	
<filter
   inkscape:collect="always"
   id="filter3376"
   x="-0.007111907"
   width="1.0142238"
   y="-0.10282495"
   height="1.2056499">
  <feGaussianBlur
     inkscape:collect="always"
     stdDeviation="1.9847176"
     id="feGaussianBlur3378" />
</filter>
<filter
   inkscape:collect="always"
   id="filter3380">
  <feGaussianBlur
     inkscape:collect="always"
     stdDeviation="2.6033793"
     id="feGaussianBlur3382" />
</filter>
<filter
   inkscape:collect="always"
   id="filter3552"
   x="-0.013276566"
   width="1.0265532"
   y="-0.19195446"
   height="1.3839089">
  <feGaussianBlur
     inkscape:collect="always"
     stdDeviation="3.705087"
     id="feGaussianBlur3554" />
</filter>
<filter
   inkscape:collect="always"
   id="filter3556">
  <feGaussianBlur
     inkscape:collect="always"
     stdDeviation="3.7050872"
     id="feGaussianBlur3558" />
</filter>
<filter
   inkscape:collect="always"
   id="filter3560"
   x="-0.10227005"
   width="1.2045401"
   y="-0.062478095"
   height="1.1249563">
  <feGaussianBlur
     inkscape:collect="always"
     stdDeviation="3.705087"
     id="feGaussianBlur3562" />
</filter>
<filter
   inkscape:collect="always"
   id="filter3564"
   x="-0.10226908"
   width="1.2045382"
   y="-0.062477853"
   height="1.1249557">
  <feGaussianBlur
     inkscape:collect="always"
     stdDeviation="3.705087"
     id="feGaussianBlur3566" />
</filter>
<filter
   inkscape:collect="always"
   id="filter3568"
   x="-0.10581228"
   width="1.2116246"
   y="-0.065346047"
   height="1.1306921">
  <feGaussianBlur
     inkscape:collect="always"
     stdDeviation="3.705087"
     id="feGaussianBlur3570" />
</filter>
<filter
   inkscape:collect="always"
   id="filter3572"
   x="-0.062478103"
   width="1.1249563"
   y="-0.10226972"
   height="1.2045394">
  <feGaussianBlur
     inkscape:collect="always"
     stdDeviation="3.705087"
     id="feGaussianBlur3574" />
</filter>
<filter
   inkscape:collect="always"
   id="filter3576"
   x="-0.062478095"
   width="1.1249563"
   y="-0.10226908"
   height="1.2045382">
  <feGaussianBlur
     inkscape:collect="always"
     stdDeviation="3.705087"
     id="feGaussianBlur3578" />
</filter>
<filter
   inkscape:collect="always"
   id="filter3580"
   x="-0.065346316"
   width="1.1306926"
   y="-0.10581296"
   height="1.2116259">
  <feGaussianBlur
     inkscape:collect="always"
     stdDeviation="3.705087"
     id="feGaussianBlur3582" />
</filter>
<filter
   inkscape:collect="always"
   id="filter3584"
   x="-0.065346047"
   width="1.1306921"
   y="-0.10581222"
   height="1.2116244">
  <feGaussianBlur
     inkscape:collect="always"
     stdDeviation="3.705087"
     id="feGaussianBlur3586" />
</filter>
<filter
   inkscape:collect="always"
   id="filter3741"
   x="-0.036349185"
   width="1.0726984"
   y="-0.13628523"
   height="1.2725705">
  <feGaussianBlur
     inkscape:collect="always"
     stdDeviation="17.719981"
     id="feGaussianBlur3743" />
</filter>
<filter
   inkscape:collect="always"
   id="filter3749">
  <feGaussianBlur
     inkscape:collect="always"
     stdDeviation="1.8525435"
     id="feGaussianBlur3751" />
</filter>
</defs>
  <sodipodi:namedview
     id="base"
     pagecolor="#ffffff"
     bordercolor="#666666"
     borderopacity="1.0"
     gridtolerance="10000"
     guidetolerance="10"
     objecttolerance="10"
     inkscape:pageopacity="0.0"
     inkscape:pageshadow="2"
     inkscape:zoom="0.49497475"
     inkscape:cx="790.87045"
     inkscape:cy="518.48737"
     inkscape:document-units="px"
     inkscape:current-layer="layer1"
     showgrid="false"
     inkscape:window-width="1280"
     inkscape:window-height="780"
     inkscape:window-x="-8"
     inkscape:window-y="-8" />
  <metadata
     id="metadata7">
    <rdf:RDF>
      <cc:Work
         rdf:about="">
        <dc:format>image/svg+xml</dc:format>
        <dc:type
           rdf:resource="http://purl.org/dc/dcmitype/StillImage" />
      </cc:Work>
    </rdf:RDF>
  </metadata>
  <g
     inkscape:label="Layer 1"
     inkscape:groupmode="layer"
     id="layer1"
     transform="translate(-35.403083,-40.622391)">
    <g
       id="g3784"
       style="fill:#000000">
      <path
         transform="matrix(0.9093601,0,0,0.9093601,56.232515,17.824144)"
         id="path5"
         d="M 224.93896,44.26331 C 187.81874,36.06694 149.57922,41.95328 117.17171,59.46082 L 253.25046,124.66003 L 224.93896,44.26331 z"
         style="fill:#000000;fill-opacity:1;filter:url(#filter3584)" />
      <path
         transform="matrix(0.9093601,0,0,0.9093601,56.232515,17.824144)"
         id="path7"
         d="M 157.91936,349.03262 C 195.03957,357.22899 233.27855,351.34239 265.68579,333.8354 L 129.60759,268.63645 L 157.91936,349.03262 z"
         style="fill:#000000;fill-opacity:1;filter:url(#filter3580)" />
      <path
         transform="matrix(0.9093601,0,0,0.9093601,56.232515,17.824144)"
         id="path9"
         d="M 107.37217,65.20062 C 75.327868,85.6529 52.451307,116.85429 41.914971,152.14976 L 184.24019,102.03028 L 107.37217,65.20062 L 107.37217,65.20062 z"
         style="fill:#000000;fill-opacity:1;filter:url(#filter3576)" />
      <path
         transform="matrix(0.9093601,0,0,0.9093601,56.232515,17.824144)"
         id="path11"
         d="M 275.48613,328.09531 C 307.53017,307.64357 330.40645,276.44138 340.94307,241.14671 L 198.61786,291.26619 L 275.48613,328.09531 z"
         style="fill:#000000;fill-opacity:1;filter:url(#filter3572)" />
      <path
         transform="matrix(0.9093601,0,0,0.9093601,56.232515,17.824144)"
         id="path13"
         d="M 39.043956,163.1379 C 30.847581,200.25812 36.734184,238.49709 54.241459,270.90515 L 119.44067,134.8264 L 39.043956,163.1379 z"
         style="fill:#000000;fill-opacity:1;filter:url(#filter3568)" />
      <path
         transform="matrix(0.9093601,0,0,0.9093601,56.232515,17.824144)"
         id="path17"
         d="M 59.981003,280.70523 C 80.433281,312.74953 111.63493,335.62555 146.93015,346.16243 L 96.810927,203.83666 L 59.981003,280.70523 z"
         style="fill:#000000;fill-opacity:1;filter:url(#filter3564)" />
      <path
         transform="matrix(0.9093601,0,0,0.9093601,56.232515,17.824144)"
         id="path19"
         d="M 322.87568,112.59126 C 302.42341,80.54696 271.22175,57.67095 235.92736,47.13378 L 286.04683,189.459 L 322.87568,112.59126 z"
         style="fill:#000000;fill-opacity:1;filter:url(#filter3560)" />
    </g>
    <path
       transform="matrix(0.9787429,0,0,0.8448957,78.316975,-399.18242)"
       style="font-size:266.0647583px;font-style:normal;font-weight:normal;line-height:100%;fill:#000000;fill-opacity:1;stroke:none;stroke-width:1px;stroke-linecap:butt;stroke-linejoin:miter;stroke-opacity:1;filter:url(#filter3556);font-family:Bitstream Vera Sans"
       d="M 309.546,725.01127 L 265.11526,725.01127 L 251.66912,749.79895 L 228.05067,749.79895 L 291.30602,637.90364 L 316.91215,637.90364 L 335.03522,749.79895 L 313.28754,749.79895 L 309.546,725.01127 z M 306.62293,706.42052 L 300.19216,661.40516 L 273.18295,706.42052 L 306.62293,706.42052 z M 371.86596,749.79895 L 348.83213,749.79895 L 372.33365,637.90364 L 417.8167,637.90364 C 440.81146,637.90375 452.30887,647.25758 452.30898,665.96516 C 452.30887,676.17651 449.77554,684.49752 444.70899,690.92822 C 439.64223,697.35904 433.67916,701.6657 426.81977,703.84821 C 419.96021,706.03082 409.55407,707.1221 395.60133,707.12206 L 380.86903,707.12206 L 371.86596,749.79895 z M 384.61057,688.5313 L 391.74287,688.5313 C 405.61767,688.53136 415.34175,686.91393 420.91516,683.679 C 426.4884,680.4442 429.27506,675.20215 429.27515,667.95285 C 429.27506,663.43192 427.8525,660.35295 425.00746,658.71594 C 422.16226,657.07911 416.45252,656.26065 407.87824,656.26055 L 391.3921,656.26055 L 384.61057,688.5313 z M 453.24436,749.79895 L 476.62896,637.90364 L 559.52737,637.90364 L 555.66891,656.61132 L 495.68741,656.61132 L 490.42588,681.98361 L 548.30276,681.98361 L 544.4443,700.69129 L 486.45049,700.69129 L 479.43511,731.09127 L 544.56122,731.09127 L 540.58584,749.79895 L 453.24436,749.79895 z M 581.04119,749.79895 L 558.00736,749.79895 L 581.39196,637.90364 L 631.08423,637.90364 C 655.01437,637.90375 666.97948,647.6863 666.97959,667.25131 C 666.97948,687.67393 655.52103,699.32724 632.60423,702.21129 C 639.46362,708.29133 647.96002,724.15387 658.09344,749.79895 L 633.30577,749.79895 C 631.66877,744.49845 628.66775,736.70359 624.3027,726.41435 C 619.9375,716.12516 616.33238,709.73338 613.48732,707.23898 C 610.64214,704.74467 606.17958,703.49749 600.09964,703.49744 L 590.7458,703.49744 L 581.04119,749.79895 z M 594.25349,686.66053 L 606.41348,686.66053 C 620.52212,686.66059 630.30467,685.16008 635.76115,682.159 C 641.21747,679.15804 643.94567,674.30574 643.94576,667.60208 C 643.94567,660.275 637.90465,656.61141 625.8227,656.61132 L 600.45041,656.61132 L 594.25349,686.66053 z M 718.89341,749.79895 L 695.85958,749.79895 L 715.38572,656.61132 L 682.64728,656.61132 L 686.50574,637.90364 L 774.66568,637.90364 L 770.80722,656.61132 L 738.41955,656.61132 L 718.89341,749.79895 z M 789.04719,637.90364 L 812.08102,637.90364 L 796.29642,713.66974 C 796.29638,720.52926 797.54356,725.38156 800.03795,728.22666 C 802.53227,731.0718 807.482,732.49436 814.88717,732.49435 C 822.99377,732.49436 829.0153,730.29232 832.95178,725.8882 C 836.88811,721.48413 840.25938,712.53953 843.06562,699.05437 L 855.81022,637.90364 L 878.84405,637.90364 L 866.09945,699.17129 C 861.34448,722.08823 854.29013,736.56718 844.93638,742.60819 C 835.58247,748.64921 825.21531,751.66972 813.83487,751.66972 C 801.44099,751.66972 791.61946,748.62972 784.37027,742.54972 C 777.12103,736.46974 773.49642,728.12924 773.49643,717.5282 C 773.49642,713.9426 774.54872,707.04415 776.65335,696.83283 L 789.04719,637.90364 z M 901.87792,749.79895 L 878.84409,749.79895 L 902.22869,637.90364 L 951.92096,637.90364 C 975.8511,637.90375 987.81621,647.6863 987.81632,667.25131 C 987.81621,687.67393 976.35776,699.32724 953.44096,702.21129 C 960.30036,708.29133 968.79675,724.15387 978.93018,749.79895 L 954.1425,749.79895 C 952.5055,744.49845 949.50448,736.70359 945.13943,726.41435 C 940.77423,716.12516 937.16911,709.73338 934.32405,707.23898 C 931.47887,704.74467 927.01631,703.49749 920.93637,703.49744 L 911.58253,703.49744 L 901.87792,749.79895 z M 915.09022,686.66053 L 927.25021,686.66053 C 941.35885,686.66059 951.1414,685.16008 956.59788,682.159 C 962.0542,679.15804 964.7824,674.30574 964.78249,667.60208 C 964.7824,660.275 958.74138,656.61141 946.65943,656.61132 L 921.28714,656.61132 L 915.09022,686.66053 z M 991.09014,749.79895 L 1014.4747,637.90364 L 1097.3731,637.90364 L 1093.5147,656.61132 L 1033.5332,656.61132 L 1028.2717,681.98361 L 1086.1485,681.98361 L 1082.2901,700.69129 L 1024.2963,700.69129 L 1017.2809,731.09127 L 1082.407,731.09127 L 1078.4316,749.79895 L 991.09014,749.79895 z"
       id="text3366" />
    <path
       transform="matrix(1.021912,0,0,0.8092045,78.316975,-399.18242)"
       style="font-size:62.53970337px;font-style:normal;font-weight:normal;fill:#000000;fill-opacity:1;stroke:none;stroke-width:1px;stroke-linecap:butt;stroke-linejoin:miter;stroke-opacity:1;filter:url(#filter3552);font-family:Bitstream Vera Sans"
       d="M 378.89127,843.84753 L 378.89127,799.08034 L 384.81545,799.08034 L 384.81545,838.56464 L 406.86313,838.56464 L 406.86313,843.84753 L 378.89127,843.84753 z M 426.37625,843.84753 L 443.56857,799.08034 L 449.95079,799.08034 L 468.27297,843.84753 L 461.5243,843.84753 L 456.30248,830.28912 L 437.58332,830.28912 L 432.66687,843.84753 L 426.37625,843.84753 z M 439.29339,825.46428 L 454.47026,825.46428 L 449.79811,813.06627 C 448.37303,809.30008 447.31441,806.20567 446.62226,803.78304 C 446.05222,806.65355 445.24808,809.50366 444.20984,812.33339 L 439.29339,825.46428 z M 490.16798,843.84753 L 490.16798,799.08034 L 506.96331,799.08034 C 510.38342,799.08039 513.12666,799.53335 515.19302,800.43924 C 517.25932,801.34521 518.87778,802.73973 520.0484,804.6228 C 521.21895,806.50595 521.80424,808.47559 521.80427,810.53171 C 521.80424,812.44539 521.28511,814.24707 520.24689,815.93675 C 519.2086,817.62649 517.64103,818.99047 515.5442,820.0287 C 518.25177,820.82269 520.33337,822.17649 521.789,824.09012 C 523.24456,826.00379 523.97236,828.26352 523.9724,830.86932 C 523.97236,832.96621 523.52957,834.91548 522.64404,836.71715 C 521.75843,838.51884 520.66419,839.90827 519.36132,840.88545 C 518.05837,841.86263 516.42465,842.60061 514.46013,843.09938 C 512.49556,843.59815 510.08823,843.84753 507.23814,843.84753 L 490.16798,843.84753 z M 496.09215,817.89111 L 505.77237,817.89111 C 508.39852,817.89114 510.28163,817.7181 511.4217,817.37199 C 512.92817,816.92414 514.06312,816.18107 514.82658,815.14279 C 515.58997,814.10456 515.97168,812.80165 515.97171,811.23406 C 515.97168,809.74796 515.61542,808.43996 514.90292,807.31006 C 514.19036,806.18023 513.17246,805.40662 511.84922,804.98925 C 510.52593,804.57195 508.25602,804.36328 505.03948,804.36324 L 496.09215,804.36324 L 496.09215,817.89111 z M 496.09215,838.56464 L 507.23814,838.56464 C 509.15177,838.56464 510.49539,838.49339 511.26902,838.35088 C 512.63298,838.10659 513.77302,837.69943 514.68916,837.1294 C 515.60524,836.55939 516.35848,835.7298 516.9489,834.64064 C 517.53924,833.5515 517.83444,832.29439 517.83447,830.86932 C 517.83444,829.19998 517.40692,827.74948 516.55191,826.51781 C 515.69685,825.28617 514.511,824.42095 512.99436,823.92216 C 511.47766,823.42341 509.29427,823.17403 506.44418,823.17401 L 496.09215,823.17401 L 496.09215,838.56464 z M 547.73014,822.04414 C 547.73014,814.61351 549.72522,808.79622 553.71539,804.59227 C 557.70554,800.38839 562.8561,798.28643 569.16709,798.28638 C 573.29973,798.28643 577.02524,799.27379 580.34362,801.24847 C 583.66193,803.22323 586.19141,805.97665 587.93206,809.50872 C 589.67262,813.04086 590.54292,817.04629 590.54297,821.52501 C 590.54292,826.06486 589.62682,830.12627 587.79464,833.70926 C 585.96238,837.29227 583.36674,840.00497 580.00772,841.84736 C 576.64862,843.68976 573.0249,844.61096 569.13656,844.61096 C 564.92244,844.61096 561.15621,843.59306 557.83788,841.55726 C 554.51952,839.52147 552.00531,836.74261 550.29525,833.22067 C 548.58518,829.69875 547.73014,825.97325 547.73014,822.04414 L 547.73014,822.04414 z M 553.83754,822.13575 C 553.83753,827.53063 555.28803,831.78036 558.18906,834.88494 C 561.09005,837.98953 564.72904,839.54183 569.10602,839.54182 C 573.56439,839.54183 577.23391,837.97426 580.1146,834.83913 C 582.99521,831.70401 584.43554,827.2558 584.43558,821.49448 C 584.43554,817.85042 583.81971,814.66949 582.58809,811.95167 C 581.3564,809.23392 579.55472,807.12687 577.18305,805.63052 C 574.81131,804.13425 572.14951,803.3861 569.19763,803.38606 C 565.00387,803.3861 561.39542,804.82642 558.37228,807.70704 C 555.34911,810.58772 553.83753,815.39729 553.83754,822.13575 L 553.83754,822.13575 z M 615.58329,843.84753 L 615.58329,799.08034 L 635.43232,799.08034 C 639.42245,799.08039 642.45579,799.48246 644.53233,800.28655 C 646.60881,801.09074 648.26798,802.5107 649.50986,804.54646 C 650.75165,806.5823 651.37257,808.83185 651.37261,811.29513 C 651.37257,814.471 650.3445,817.14807 648.28838,819.32635 C 646.23219,821.50468 643.05635,822.88902 638.76085,823.47938 C 640.32838,824.23264 641.51932,824.97571 642.33367,825.70858 C 644.06407,827.29652 645.70288,829.28142 647.25012,831.66329 L 655.03705,843.84753 L 647.58603,843.84753 L 641.66186,834.53376 C 639.9314,831.84652 638.50634,829.79037 637.38668,828.36529 C 636.26697,826.94025 635.26434,825.94271 634.37879,825.37267 C 633.4932,824.80267 632.59236,824.40569 631.67627,824.18173 C 631.00444,824.03924 629.90511,823.96799 628.37828,823.96797 L 621.50746,823.96797 L 621.50746,843.84753 L 615.58329,843.84753 z M 621.50746,818.83776 L 634.24138,818.83776 C 636.94896,818.83779 639.06619,818.55786 640.59306,817.99799 C 642.11988,817.43818 643.28029,816.54243 644.07428,815.31074 C 644.86821,814.07911 645.26519,812.74058 645.26522,811.29513 C 645.26519,809.17794 644.49667,807.43733 642.95968,806.07331 C 641.42262,804.70936 638.99494,804.02737 635.67661,804.02733 L 621.50746,804.02733 L 621.50746,818.83776 z M 673.11493,843.84753 L 690.30724,799.08034 L 696.68947,799.08034 L 715.01165,843.84753 L 708.26298,843.84753 L 703.04116,830.28912 L 684.322,830.28912 L 679.40555,843.84753 L 673.11493,843.84753 z M 686.03207,825.46428 L 701.20894,825.46428 L 696.53678,813.06627 C 695.1117,809.30008 694.05309,806.20567 693.36094,803.78304 C 692.7909,806.65355 691.98676,809.50366 690.94852,812.33339 L 686.03207,825.46428 z M 748.54124,843.84753 L 748.54124,804.36324 L 733.79189,804.36324 L 733.79189,799.08034 L 769.27584,799.08034 L 769.27584,804.36324 L 754.46541,804.36324 L 754.46541,843.84753 L 748.54124,843.84753 z M 790.92654,822.04414 C 790.92654,814.61351 792.92162,808.79622 796.91179,804.59227 C 800.90194,800.38839 806.0525,798.28643 812.36349,798.28638 C 816.49613,798.28643 820.22164,799.27379 823.54002,801.24847 C 826.85833,803.22323 829.38781,805.97665 831.12845,809.50872 C 832.86902,813.04086 833.73932,817.04629 833.73937,821.52501 C 833.73932,826.06486 832.82321,830.12627 830.99104,833.70926 C 829.15878,837.29227 826.56314,840.00497 823.20411,841.84736 C 819.84501,843.68976 816.2213,844.61096 812.33295,844.61096 C 808.11883,844.61096 804.35261,843.59306 801.03428,841.55726 C 797.71592,839.52147 795.20171,836.74261 793.49165,833.22067 C 791.78157,829.69875 790.92654,825.97325 790.92654,822.04414 L 790.92654,822.04414 z M 797.03393,822.13575 C 797.03392,827.53063 798.48443,831.78036 801.38545,834.88494 C 804.28645,837.98953 807.92543,839.54183 812.30242,839.54182 C 816.76078,839.54183 820.43031,837.97426 823.31099,834.83913 C 826.19161,831.70401 827.63193,827.2558 827.63197,821.49448 C 827.63193,817.85042 827.0161,814.66949 825.78449,811.95167 C 824.55279,809.23392 822.75111,807.12687 820.37944,805.63052 C 818.00771,804.13425 815.34591,803.3861 812.39403,803.38606 C 808.20026,803.3861 804.59182,804.82642 801.56867,807.70704 C 798.5455,810.58772 797.03392,815.39729 797.03393,822.13575 L 797.03393,822.13575 z M 858.77967,843.84753 L 858.77967,799.08034 L 878.6287,799.08034 C 882.61883,799.08039 885.65217,799.48246 887.72871,800.28655 C 889.80519,801.09074 891.46436,802.5107 892.70624,804.54646 C 893.94804,806.5823 894.56895,808.83185 894.56899,811.29513 C 894.56895,814.471 893.54088,817.14807 891.48476,819.32635 C 889.42857,821.50468 886.25273,822.88902 881.95723,823.47938 C 883.52476,824.23264 884.7157,824.97571 885.53005,825.70858 C 887.26045,827.29652 888.89926,829.28142 890.4465,831.66329 L 898.23343,843.84753 L 890.78241,843.84753 L 884.85824,834.53376 C 883.12778,831.84652 881.70273,829.79037 880.58306,828.36529 C 879.46335,826.94025 878.46072,825.94271 877.57517,825.37267 C 876.68958,824.80267 875.78874,824.40569 874.87265,824.18173 C 874.20082,824.03924 873.10149,823.96799 871.57466,823.96797 L 864.70384,823.96797 L 864.70384,843.84753 L 858.77967,843.84753 z M 864.70384,818.83776 L 877.43776,818.83776 C 880.14534,818.83779 882.26257,818.55786 883.78945,817.99799 C 885.31626,817.43818 886.47667,816.54243 887.27066,815.31074 C 888.06459,814.07911 888.46157,812.74058 888.4616,811.29513 C 888.46157,809.17794 887.69305,807.43733 886.15606,806.07331 C 884.619,804.70936 882.19132,804.02737 878.87299,804.02733 L 864.70384,804.02733 L 864.70384,818.83776 z M 922.23545,843.84753 L 922.23545,799.08034 L 928.15962,799.08034 L 928.15962,843.84753 L 922.23545,843.84753 z M 956.03988,843.84753 L 956.03988,799.08034 L 988.40907,799.08034 L 988.40907,804.36324 L 961.96405,804.36324 L 961.96405,818.07434 L 986.72953,818.07434 L 986.72953,823.32669 L 961.96405,823.32669 L 961.96405,838.56464 L 989.44732,838.56464 L 989.44732,843.84753 L 956.03988,843.84753 z M 1013.0219,829.46462 L 1018.6101,828.97603 C 1018.8748,831.21542 1019.4906,833.05273 1020.4576,834.48795 C 1021.4246,835.9232 1022.926,837.0836 1024.9618,837.96917 C 1026.9976,838.85475 1029.2879,839.29753 1031.8326,839.29753 C 1034.0923,839.29753 1036.0874,838.96162 1037.8179,838.28981 C 1039.5483,837.618 1040.8359,836.6968 1041.6808,835.52621 C 1042.5256,834.35564 1042.9481,833.07818 1042.9481,831.69382 C 1042.9481,830.28914 1042.5409,829.06257 1041.7266,828.01412 C 1040.9123,826.9657 1039.5686,826.08522 1037.6957,825.37267 C 1036.4946,824.90446 1033.8379,824.17666 1029.7256,823.18928 C 1025.6133,822.20194 1022.7326,821.27056 1021.0836,820.39515 C 1018.946,819.27548 1017.353,817.88605 1016.3046,816.22685 C 1015.2561,814.5677 1014.7319,812.71004 1014.7319,810.65385 C 1014.7319,808.39415 1015.3732,806.28202 1016.6558,804.31743 C 1017.9383,802.35293 1019.8112,800.86171 1022.2746,799.84377 C 1024.7379,798.82591 1027.476,798.31697 1030.489,798.31692 C 1033.8073,798.31697 1036.7338,798.85136 1039.2684,799.92011 C 1041.8029,800.98895 1043.7522,802.5616 1045.1162,804.63807 C 1046.4802,806.71462 1047.213,809.06597 1047.3149,811.69211 L 1041.635,812.11963 C 1041.3296,809.2899 1040.2964,807.15232 1038.5355,805.70687 C 1036.7745,804.26149 1034.1738,803.53878 1030.7333,803.53874 C 1027.1503,803.53878 1024.5394,804.19533 1022.9006,805.50838 C 1021.2617,806.8215 1020.4423,808.40433 1020.4423,810.25687 C 1020.4423,811.86519 1021.0225,813.18845 1022.183,814.22668 C 1023.323,815.26496 1026.3003,816.32867 1031.115,817.41779 C 1035.9297,818.50697 1039.2327,819.4587 1041.0243,820.273 C 1043.63,821.47414 1045.5539,822.9959 1046.7957,824.83827 C 1048.0375,826.68069 1048.6585,828.803 1048.6585,831.20523 C 1048.6585,833.58712 1047.9765,835.83159 1046.6125,837.93863 C 1045.2485,840.04569 1043.2891,841.6845 1040.7342,842.85508 C 1038.1792,844.02567 1035.3036,844.61096 1032.1075,844.61096 C 1028.0562,844.61096 1024.6615,844.02058 1021.9234,842.83981 C 1019.1852,841.65905 1017.0375,839.88282 1015.4801,837.51111 C 1013.9227,835.13942 1013.1033,832.45726 1013.0219,829.46462 L 1013.0219,829.46462 z"
       id="text3372" />
  </g>
</svg>
