<?xml version="1.0" encoding="UTF-8" standalone="no"?>
<!-- Created with Inkscape (http://www.inkscape.org/) -->

<svg
   xmlns:dc="http://purl.org/dc/elements/1.1/"
   xmlns:cc="http://creativecommons.org/ns#"
   xmlns:rdf="http://www.w3.org/1999/02/22-rdf-syntax-ns#"
   xmlns:svg="http://www.w3.org/2000/svg"
   xmlns="http://www.w3.org/2000/svg"
   xmlns:sodipodi="http://sodipodi.sourceforge.net/DTD/sodipodi-0.dtd"
   xmlns:inkscape="http://www.inkscape.org/namespaces/inkscape"
   width="354.33069"
   height="354.33069"
   id="svg2"
   sodipodi:version="0.32"
   inkscape:version="0.48.3.1 r9886"
   version="1.0"
   sodipodi:docname="ApetureLabs.svg"
   inkscape:output_extension="org.inkscape.output.svg.inkscape">
  <defs
     id="defs4">
    <inkscape:perspective
       sodipodi:type="inkscape:persp3d"
       inkscape:vp_x="0 : 526.18109 : 1"
       inkscape:vp_y="0 : 1000 : 0"
       inkscape:vp_z="744.09448 : 526.18109 : 1"
       inkscape:persp3d-origin="372.04724 : 350.78739 : 1"
       id="perspective10" />
    <inkscape:perspective
       id="perspective2484"
       inkscape:persp3d-origin="372.04724 : 350.78739 : 1"
       inkscape:vp_z="744.09448 : 526.18109 : 1"
       inkscape:vp_y="0 : 1000 : 0"
       inkscape:vp_x="0 : 526.18109 : 1"
       sodipodi:type="inkscape:persp3d" />
    <inkscape:perspective
       id="perspective26"
       inkscape:persp3d-origin="257.38351 : 171.58901 : 1"
       inkscape:vp_z="514.76703 : 257.38351 : 1"
       inkscape:vp_y="0 : 1000 : 0"
       inkscape:vp_x="0 : 257.38351 : 1"
       sodipodi:type="inkscape:persp3d" />
  </defs>
  <sodipodi:namedview
     id="base"
     pagecolor="#ffffff"
     bordercolor="#666666"
     borderopacity="1.0"
     gridtolerance="10000"
     guidetolerance="10"
     objecttolerance="10"
     inkscape:pageopacity="0.0"
     inkscape:pageshadow="2"
     inkscape:zoom="1.941689"
     inkscape:cx="127.93387"
     inkscape:cy="203.09708"
     inkscape:document-units="mm"
     inkscape:current-layer="layer1"
     showgrid="false"
     inkscape:window-width="1680"
     inkscape:window-height="886"
     inkscape:window-x="0"
     inkscape:window-y="27"
     inkscape:window-maximized="1"
     units="mm" />
  <metadata
     id="metadata7">
    <rdf:RDF>
      <cc:Work
         rdf:about="">
        <dc:format>image/svg+xml</dc:format>
        <dc:type
           rdf:resource="http://purl.org/dc/dcmitype/StillImage" />
      </cc:Work>
    </rdf:RDF>
  </metadata>
  <g
     inkscape:label="Layer 1"
     inkscape:groupmode="layer"
     id="layer1"
     transform="translate(-35.403083,1.6572291)">
    <g
       id="g3784"
       style="fill:#ff0000;fill-opacity:1"
       transform="matrix(0.32354058,0,0,0.32354058,11.696888,100.79438)">
      <path
         transform="matrix(0.9093601,0,0,0.9093601,56.232515,17.824144)"
         id="path5"
         d="M 224.93896,44.26331 C 187.81874,36.06694 149.57922,41.95328 117.17171,59.46082 l 136.07875,65.19921 -28.3115,-80.39672 z"
         style="fill:#ff0000;fill-opacity:1"
         inkscape:connector-curvature="0" />
      <path
         transform="matrix(0.9093601,0,0,0.9093601,56.232515,17.824144)"
         id="path7"
         d="m 157.91936,349.03262 c 37.12021,8.19637 75.35919,2.30977 107.76643,-15.19722 l -136.0782,-65.19895 28.31177,80.39617 z"
         style="fill:#ff0000;fill-opacity:1"
         inkscape:connector-curvature="0" />
      <path
         transform="matrix(0.9093601,0,0,0.9093601,56.232515,17.824144)"
         id="path9"
         d="M 107.37217,65.20062 C 75.327868,85.6529 52.451307,116.85429 41.914971,152.14976 l 142.325219,-50.11948 -76.86802,-36.82966 0,0 z"
         style="fill:#ff0000;fill-opacity:1"
         inkscape:connector-curvature="0" />
      <path
         transform="matrix(0.9093601,0,0,0.9093601,56.232515,17.824144)"
         id="path11"
         d="m 275.48613,328.09531 c 32.04404,-20.45174 54.92032,-51.65393 65.45694,-86.9486 l -142.32521,50.11948 76.86827,36.82912 z"
         style="fill:#ff0000;fill-opacity:1"
         inkscape:connector-curvature="0" />
      <path
         transform="matrix(0.9093601,0,0,0.9093601,56.232515,17.824144)"
         id="path13"
         d="m 39.043956,163.1379 c -8.196375,37.12022 -2.309772,75.35919 15.197503,107.76725 L 119.44067,134.8264 39.043956,163.1379 z"
         style="fill:#ff0000;fill-opacity:1"
         inkscape:connector-curvature="0" />
      <path
         transform="matrix(0.9093601,0,0,0.9093601,56.232515,17.824144)"
         id="path17"
         d="m 59.981003,280.70523 c 20.452278,32.0443 51.653927,54.92032 86.949147,65.4572 L 96.810927,203.83666 59.981003,280.70523 z"
         style="fill:#ff0000;fill-opacity:1"
         inkscape:connector-curvature="0" />
      <path
         transform="matrix(0.9093601,0,0,0.9093601,56.232515,17.824144)"
         id="path19"
         d="M 322.87568,112.59126 C 302.42341,80.54696 271.22175,57.67095 235.92736,47.13378 l 50.11947,142.32522 36.82885,-76.86774 z"
         style="fill:#ff0000;fill-opacity:1"
         inkscape:connector-curvature="0" />
    </g>
    <path
       style="font-size:266.0647583px;font-style:normal;font-weight:normal;line-height:100%;fill:#000000;fill-opacity:1;stroke:none;font-family:Bitstream Vera Sans"
       d="m 135.05738,169.83034 -14.06957,0 -4.25789,6.77591 -7.47909,0 20.03063,-30.58749 8.10852,0 5.73891,30.58749 -6.88668,0 -1.18483,-6.77591 z m -0.92561,-5.08193 -2.0364,-12.30532 -8.55281,12.30532 10.58921,0 z m 20.66004,11.85784 -7.29395,0 7.44206,-30.58749 14.4028,0 c 7.2816,4e-5 10.9224,2.55698 10.92244,7.67085 -4e-5,2.79136 -0.80226,5.06596 -2.40665,6.82384 -1.60445,1.75792 -3.49274,2.93519 -5.66485,3.5318 -2.17217,0.59663 -5.46741,0.89494 -9.88572,0.89493 l -4.66519,0 -2.85094,11.66607 z m 4.03575,-16.748 2.25854,0 c 4.39364,1e-5 7.4729,-0.44213 9.23779,-1.32641 1.76484,-0.88427 2.64726,-2.31723 2.6473,-4.29888 -4e-5,-1.23583 -0.4505,-2.07748 -1.35142,-2.52498 -0.90097,-0.44744 -2.70904,-0.67118 -5.4242,-0.6712 l -5.22053,0 -2.14748,8.82147 z m 21.73379,16.748 7.40505,-30.58749 26.25085,0 -1.22182,5.1139 -18.99392,0 -1.66614,6.93572 18.32746,0 -1.22183,5.11391 -18.36449,0 -2.22151,8.31007 20.62303,0 -1.25885,5.11389 -27.65783,0 z m 40.46853,0 -7.29396,0 7.40505,-30.58749 15.7357,0 c 7.57779,4e-5 11.3667,2.67418 11.36674,8.02244 -4e-5,5.58268 -3.62851,8.7682 -10.88542,9.55658 2.17212,1.66203 4.86261,5.99818 8.0715,13.00847 l -7.84935,0 c -0.51836,-1.44894 -1.46868,-3.57972 -2.85093,-6.39236 -1.3823,-2.81263 -2.5239,-4.55988 -3.42483,-5.24175 -0.90096,-0.68184 -2.31409,-1.02276 -4.23939,-1.02277 l -2.96201,0 -3.0731,12.65688 z m 4.18386,-17.2594 3.85061,0 c 4.4677,2e-5 7.56547,-0.41016 9.29332,-1.23053 1.72782,-0.82034 2.59174,-2.14674 2.59177,-3.97924 -3e-5,-2.00293 -1.91299,-3.0044 -5.7389,-3.00442 l -8.03447,0 -1.96233,8.21419 z m 39.46886,17.2594 -7.29397,0 6.18321,-25.47359 -10.36705,0 1.22182,-5.1139 27.917,0 -1.22183,5.1139 -10.25599,0 -6.18319,25.47359 z m 22.2151,-30.58749 7.29397,0 -4.9984,20.71128 c -10e-6,1.8751 0.39493,3.20151 1.18479,3.97925 0.78987,0.77774 2.35726,1.1666 4.70221,1.1666 2.56706,0 4.47386,-0.60193 5.72039,-1.80583 1.24649,-1.20389 2.31405,-3.64898 3.20268,-7.33525 l 4.03575,-16.71605 7.29396,0 -4.03574,16.74801 c -1.50572,6.26453 -3.73958,10.22248 -6.70156,11.87382 -2.96204,1.65137 -6.24494,2.47706 -9.84871,2.47706 -3.92467,0 -7.0348,-0.83101 -9.33034,-2.49303 -2.29558,-1.66202 -3.44336,-3.94195 -3.44335,-6.83983 -10e-6,-0.98016 0.33323,-2.8659 0.99968,-5.65726 l 3.92467,-16.10877 z m 35.72933,30.58749 -7.29396,0 7.40504,-30.58749 15.7357,0 c 7.57779,4e-5 11.36669,2.67418 11.36673,8.02244 -4e-5,5.58268 -3.6285,8.7682 -10.8854,9.55658 2.17211,1.66203 4.86261,5.99818 8.07148,13.00847 l -7.84933,0 c -0.51837,-1.44894 -1.46869,-3.57972 -2.85094,-6.39236 -1.3823,-2.81263 -2.52391,-4.55988 -3.42484,-5.24175 -0.90096,-0.68184 -2.31408,-1.02276 -4.23938,-1.02277 l -2.96202,0 -3.07308,12.65688 z m 4.18384,-17.2594 3.85062,0 c 4.46769,2e-5 7.56547,-0.41016 9.29333,-1.23053 1.72781,-0.82034 2.59173,-2.14674 2.59176,-3.97924 -3e-5,-2.00293 -1.913,-3.0044 -5.7389,-3.00442 l -8.03448,0 -1.96233,8.21419 z m 24.06637,17.2594 7.40503,-30.58749 26.25086,0 -1.22181,5.1139 -18.99393,0 -1.66612,6.93572 18.32745,0 -1.22182,5.11391 -18.36449,0 -2.22153,8.31007 20.62304,0 -1.25887,5.11389 -27.65781,0 z"
       id="text3366"
       inkscape:connector-curvature="0" />
    <path
       style="font-size:62.53970336999999802px;font-style:normal;font-weight:normal;fill:#00ff00;fill-opacity:1;stroke:none;font-family:Bitstream Vera Sans"
       d="m 162.30844,192.57082 0,-11.72052 1.9587,0 0,10.3374 7.28963,0 0,1.38312 -9.24833,0 z m 15.69996,0 5.68429,-11.72052 2.11015,0 6.05787,11.72052 -2.23131,0 -1.7265,-3.54974 -6.18911,0 -1.62552,3.54974 -2.07987,0 z m 4.27079,-4.81293 5.01793,0 -1.54477,-3.24593 c -0.47116,-0.98603 -0.82118,-1.79618 -1.05001,-2.43045 -0.18847,0.75153 -0.45434,1.49772 -0.79762,2.23858 l -1.62553,3.4378 z m 16.82066,4.81293 0,-11.72052 5.55305,0 c 1.13078,1e-5 2.03778,0.1186 2.72098,0.35578 0.68318,0.23718 1.21829,0.60229 1.60533,1.09529 0.38703,0.49303 0.58054,1.0087 0.58055,1.54701 -1e-5,0.50103 -0.17164,0.97273 -0.51491,1.4151 -0.34329,0.44239 -0.86159,0.79949 -1.55486,1.07131 0.89521,0.20787 1.58344,0.56233 2.06472,1.06332 0.48126,0.50103 0.72189,1.09265 0.7219,1.77488 -1e-5,0.54898 -0.14641,1.05931 -0.43919,1.53101 -0.29282,0.47171 -0.6546,0.83547 -1.08538,1.09131 -0.43078,0.25584 -0.97094,0.44906 -1.62046,0.57963 -0.64956,0.13058 -1.44549,0.19588 -2.38781,0.19588 l -5.64392,0 z m 1.95872,-6.79567 3.20057,0 c 0.86828,1e-5 1.49089,-0.0453 1.86783,-0.1359 0.49808,-0.11726 0.87333,-0.31181 1.12576,-0.58363 0.2524,-0.27183 0.37861,-0.61294 0.37862,-1.02335 -1e-5,-0.38907 -0.1178,-0.73153 -0.35337,-1.02735 -0.2356,-0.29579 -0.57216,-0.49835 -1.00967,-0.6076 -0.43751,-0.10926 -1.18801,-0.1639 -2.2515,-0.16391 l -2.95824,0 0,3.54174 z m 0,5.41255 3.6852,0 c 0.6327,0 1.07694,-0.0187 1.33273,-0.0559 0.45096,-0.064 0.8279,-0.17055 1.13079,-0.3198 0.30289,-0.14922 0.55194,-0.36642 0.74713,-0.65158 0.1952,-0.28514 0.2928,-0.61427 0.29281,-0.98736 -1e-5,-0.43705 -0.14136,-0.81681 -0.42406,-1.13928 -0.2827,-0.32245 -0.67478,-0.54898 -1.17623,-0.67955 -0.50146,-0.13059 -1.22336,-0.19588 -2.16569,-0.19589 l -3.42268,0 0,4.02943 z m 17.07307,-4.32524 c 0,-1.94542 0.65962,-3.46845 1.97889,-4.56908 1.31927,-1.10062 3.0222,-1.65093 5.10879,-1.65096 1.36639,3e-5 2.59815,0.25852 3.6953,0.77551 1.09714,0.51702 1.93345,1.2379 2.50897,2.16262 0.57548,0.92476 0.86322,1.97342 0.86324,3.14599 -2e-5,1.18859 -0.3029,2.25191 -0.90867,3.18997 -0.6058,0.93807 -1.464,1.64828 -2.57459,2.13065 -1.11062,0.48235 -2.30872,0.72353 -3.59433,0.72353 -1.39332,0 -2.63854,-0.2665 -3.73568,-0.7995 -1.09716,-0.53298 -1.92843,-1.26052 -2.49383,-2.1826 -0.5654,-0.92208 -0.84809,-1.89745 -0.84809,-2.92613 l 0,0 z m 2.01928,0.024 c 0,1.41243 0.47958,2.52505 1.43875,3.33787 0.95915,0.81281 2.1623,1.21921 3.60948,1.21921 1.47406,0 2.68731,-0.4104 3.63976,-1.23121 0.95242,-0.82081 1.42863,-1.9854 1.42865,-3.49377 -2e-5,-0.95405 -0.20364,-1.78686 -0.61085,-2.4984 -0.40722,-0.71153 -1.00292,-1.26319 -1.78707,-1.65495 -0.78415,-0.39174 -1.66424,-0.58762 -2.64022,-0.58763 -1.38658,1e-5 -2.57964,0.37711 -3.57919,1.13128 -0.99954,0.7542 -1.49931,2.01339 -1.49931,3.7776 l 0,0 z m 20.415,5.68437 0,-11.72052 6.56268,0 c 1.31927,1e-5 2.32218,0.10528 3.00875,0.31579 0.68654,0.21055 1.2351,0.58231 1.64572,1.11529 0.41056,0.53302 0.61586,1.12196 0.61587,1.76688 -1e-5,0.83148 -0.33992,1.53236 -1.01974,2.10265 -0.67983,0.57032 -1.72987,0.93275 -3.15008,1.08731 0.51827,0.19721 0.91204,0.39175 1.18128,0.58363 0.57212,0.41573 1.11396,0.93541 1.62552,1.559 l 2.5746,3.18997 -2.46353,0 -1.95872,-2.43845 c -0.57213,-0.70354 -1.04331,-1.24188 -1.4135,-1.61497 -0.3702,-0.3731 -0.70172,-0.63426 -0.99449,-0.7835 -0.2928,-0.14924 -0.59065,-0.25317 -0.89353,-0.3118 -0.22213,-0.0373 -0.58561,-0.0559 -1.09044,-0.0559 l -2.27168,0 0,5.20468 -1.95871,0 z m 1.95871,-6.54783 4.21021,0 c 0.89521,1e-5 1.59523,-0.0733 2.10006,-0.21985 0.50481,-0.14657 0.88848,-0.38108 1.15099,-0.70356 0.2625,-0.32245 0.39375,-0.6729 0.39376,-1.05132 -1e-5,-0.55431 -0.2541,-1.01002 -0.76227,-1.36713 -0.5082,-0.3571 -1.31087,-0.53565 -2.408,-0.53566 l -4.68475,0 0,3.87752 z m 17.06297,6.54783 5.6843,-11.72052 2.11016,0 6.05786,11.72052 -2.23132,0 -1.72648,-3.54973 -6.18913,0 -1.62552,3.54973 -2.07987,0 z m 4.2708,-4.81293 5.01793,0 -1.54476,-3.24593 c -0.47118,-0.98603 -0.82118,-1.79617 -1.05003,-2.43045 -0.18848,0.75153 -0.45434,1.49771 -0.79762,2.23857 l -1.62552,3.43781 z m 20.66741,4.81293 0,-10.33741 -4.87658,0 0,-1.38311 11.73206,0 0,1.38311 -4.89677,0 0,10.33741 -1.95871,0 z m 14.01385,-5.70836 c 0,-1.94542 0.65963,-3.46845 1.97891,-4.56909 1.31926,-1.10061 3.02218,-1.65094 5.10879,-1.65095 1.36637,1e-5 2.59814,0.25852 3.69529,0.77551 1.09714,0.51702 1.93347,1.23789 2.50897,2.16262 0.57548,0.92476 0.86323,1.97342 0.86325,3.146 -2e-5,1.18857 -0.30292,2.2519 -0.90869,3.18996 -0.60579,0.93806 -1.46399,1.64828 -2.57459,2.13063 -1.11062,0.48236 -2.30873,0.72355 -3.59433,0.72355 -1.3933,0 -2.63854,-0.26649 -3.73567,-0.7995 -1.09716,-0.53299 -1.92843,-1.26052 -2.49383,-2.18261 -0.56541,-0.92206 -0.8481,-1.89744 -0.8481,-2.92612 l 0,0 z m 2.01928,0.024 c 0,1.41243 0.47959,2.52505 1.43876,3.33787 0.95915,0.81281 2.1623,1.21922 3.60947,1.21922 1.47406,0 2.68733,-0.41041 3.63976,-1.23122 0.95242,-0.82082 1.42863,-1.9854 1.42864,-3.49377 -10e-6,-0.95405 -0.20362,-1.78685 -0.61082,-2.4984 -0.40725,-0.71153 -1.00293,-1.26319 -1.78707,-1.65495 -0.78418,-0.39174 -1.66424,-0.58761 -2.64023,-0.58762 -1.38658,1e-5 -2.57964,0.3771 -3.57919,1.13127 -0.99954,0.75419 -1.49932,2.01339 -1.49932,3.7776 l 0,0 z m 20.41501,5.68437 0,-11.72052 6.56268,0 c 1.31925,1e-5 2.32217,0.10527 3.00872,0.31579 0.68656,0.21054 1.23513,0.58232 1.64573,1.11529 0.41059,0.533 0.61587,1.12196 0.61589,1.76688 -2e-5,0.83148 -0.33993,1.53236 -1.01974,2.10265 -0.67985,0.57031 -1.72987,0.93275 -3.15009,1.08732 0.51827,0.1972 0.91202,0.39174 1.18128,0.58362 0.57212,0.41573 1.11397,0.93541 1.62553,1.55899 l 2.57459,3.18998 -2.46353,0 -1.95871,-2.43845 c -0.57214,-0.70354 -1.0433,-1.24187 -1.41351,-1.61497 -0.37021,-0.37309 -0.7017,-0.63426 -0.99449,-0.7835 -0.2928,-0.14924 -0.59066,-0.25317 -0.89353,-0.31179 -0.22214,-0.0373 -0.5856,-0.0559 -1.09043,-0.0559 l -2.2717,0 0,5.20468 -1.95869,0 z m 1.95869,-6.54783 4.21023,0 c 0.89521,1e-5 1.59522,-0.0733 2.10005,-0.21986 0.50481,-0.14656 0.88848,-0.38108 1.151,-0.70356 0.26249,-0.32244 0.39374,-0.67288 0.39375,-1.05131 -10e-6,-0.55432 -0.25409,-1.01002 -0.76227,-1.36714 -0.5082,-0.3571 -1.31086,-0.53565 -2.408,-0.53566 l -4.68476,0 0,3.87753 z m 19.02169,6.54783 0,-11.72052 1.95871,0 0,11.72052 -1.95871,0 z m 11.17676,0 0,-11.72052 10.70222,0 0,1.38311 -8.74352,0 0,3.58971 8.18821,0 0,1.37513 -8.18821,0 0,3.98945 9.0868,0 0,1.38312 -11.0455,0 z m 18.83997,-3.7656 1.84762,-0.12793 c 0.0876,0.58631 0.29112,1.06734 0.61083,1.44309 0.31973,0.37576 0.81614,0.67957 1.48924,0.91141 0.67309,0.23187 1.43033,0.34779 2.27168,0.34779 0.74713,0 1.40675,-0.0879 1.97893,-0.26383 0.57211,-0.1759 0.99784,-0.41707 1.27719,-0.72354 0.27931,-0.30648 0.419,-0.64091 0.419,-1.00336 0,-0.36776 -0.13463,-0.6889 -0.40387,-0.96338 -0.26923,-0.2745 -0.71349,-0.50502 -1.33273,-0.69157 -0.39711,-0.12258 -1.27551,-0.31312 -2.63515,-0.57163 -1.35964,-0.25849 -2.3121,-0.50235 -2.85731,-0.73154 -0.70675,-0.29315 -1.23344,-0.6569 -1.58008,-1.0913 -0.34667,-0.43439 -0.51998,-0.92074 -0.51998,-1.45907 0,-0.59161 0.21202,-1.14459 0.63609,-1.65894 0.42404,-0.51433 1.04327,-0.90474 1.85774,-1.17126 0.81445,-0.26648 1.71976,-0.39972 2.71594,-0.39973 1.09713,1e-5 2.06471,0.13991 2.90273,0.41972 0.83797,0.27983 1.48248,0.69158 1.93346,1.23522 0.45098,0.54365 0.69326,1.15926 0.72696,1.84682 l -1.87795,0.11192 c -0.10091,-0.74085 -0.44258,-1.30049 -1.02479,-1.67891 -0.58225,-0.37841 -1.44211,-0.56763 -2.57963,-0.56764 -1.18466,1e-5 -2.04789,0.17189 -2.58974,0.51566 -0.54187,0.3438 -0.81279,0.7582 -0.81279,1.2432 0,0.42108 0.19185,0.76752 0.57553,1.03934 0.37692,0.27184 1.3613,0.55032 2.95319,0.83546 1.59189,0.28518 2.68395,0.53434 3.27631,0.74754 0.86152,0.31446 1.49763,0.71288 1.9082,1.19524 0.41058,0.48235 0.6159,1.038 0.6159,1.66692 0,0.6236 -0.22549,1.21124 -0.67646,1.76288 -0.45099,0.55166 -1.09882,0.98071 -1.94356,1.28718 -0.84475,0.30647 -1.79552,0.45971 -2.85225,0.45971 -1.33948,0 -2.46185,-0.15457 -3.36716,-0.4637 -0.90533,-0.30914 -1.61541,-0.77419 -2.13034,-1.39512 -0.51492,-0.62092 -0.78585,-1.32315 -0.81275,-2.10665 l 0,0 z"
       id="text3372"
       inkscape:connector-curvature="0" />
  </g>
</svg>
